<?xml version="1.0" encoding="utf-8"?>
<!-- Uploaded to: SVG Repo, www.svgrepo.com, Generator: SVG Repo Mixer Tools -->
<!DOCTYPE svg PUBLIC "-//W3C//DTD SVG 1.1//EN" "http://www.w3.org/Graphics/SVG/1.1/DTD/svg11.dtd">
<svg version="1.1" id="Capa_1" xmlns="http://www.w3.org/2000/svg" xmlns:xlink="http://www.w3.org/1999/xlink" 
	 width="800px" height="800px" viewBox="0 0 600 600" enable-background="new 0 0 600 600" xml:space="preserve">
<g>
	<circle fill="#66AD9E" cx="300" cy="300" r="250"/>
	<g>
		<path fill="#C2C63D" d="M413.764,304.812c0-55.111-39.189-129.533-91.217-146.991c0.396-0.292,0.758-0.642,1.023-1.097
			c0.391-0.677,0.764-1.375,1.105-2.098c0.889-1.864,0.092-4.098-1.773-4.984c-0.1-0.047-0.201-0.068-0.297-0.106
			c0.262-0.906,0.473-1.831,0.625-2.779c0.1,0.007,0.197,0.026,0.301,0.026c2.064,0,3.74-1.726,3.74-3.792
			c0-0.794-0.029-1.595-0.098-2.372c-0.182-2.058-1.977-3.574-4.053-3.408c-0.104,0.008-0.197,0.044-0.297,0.06
			c-0.225-0.909-0.506-1.798-0.838-2.66c0.094-0.046,0.184-0.087,0.275-0.136c1.787-1.038,2.398-3.328,1.363-5.12
			c-0.393-0.676-0.822-1.353-1.275-2c-1.188-1.691-3.518-2.106-5.215-0.919c-0.084,0.06-0.148,0.133-0.229,0.198
			c-0.648-0.67-1.33-1.304-2.057-1.889c0.059-0.083,0.119-0.161,0.17-0.246c1.035-1.79,0.428-4.085-1.361-5.12
			c-0.682-0.391-1.391-0.766-2.109-1.102c-1.871-0.877-4.098-0.067-4.977,1.806c-0.043,0.095-0.066,0.194-0.1,0.288
			c-0.895-0.254-1.809-0.462-2.742-0.612c0.008-0.096,0.029-0.194,0.029-0.299c0-2.064-1.689-3.741-3.757-3.741v38.327v16.218
			v204.905h113.761V304.812z M311.701,167.159c0.633,0,1.275-0.164,1.861-0.501C312.975,166.997,312.334,167.159,311.701,167.159z"
			/>
		<path fill="#C2C63D" d="M415.865,375.168h-2.104H300.001v0.003h-113.76v-0.003h-2.105c-7.086,0-12.832,5.742-12.832,12.835v32.62
			c0,7.087,5.746,12.834,12.832,12.834h115.865v-0.002h74.331v0.544c0,0.589,0.479,1.067,1.068,1.067h17.115
			c0.59,0,1.068-0.478,1.068-1.067v-0.544h22.281c7.088,0,12.832-5.748,12.832-12.835V388
			C428.697,380.91,422.953,375.168,415.865,375.168z"/>
		<path fill="#C2C63D" d="M297.335,169.168c0.686,0.676,1.631,1.093,2.666,1.093v-16.218v-38.327
			c-0.779,0.002-1.566,0.035-2.342,0.106c-2.062,0.169-3.59,1.987-3.412,4.045c0.01,0.104,0.037,0.197,0.051,0.294
			c-0.91,0.23-1.803,0.512-2.67,0.841c-0.041-0.091-0.07-0.19-0.121-0.276c-1.035-1.79-3.326-2.406-5.115-1.374
			c-0.688,0.394-1.361,0.824-2.006,1.275c-1.695,1.19-2.107,3.522-0.922,5.213c0.061,0.088,0.137,0.145,0.201,0.228
			c-0.674,0.646-1.311,1.333-1.902,2.059c-0.082-0.055-0.156-0.122-0.242-0.175c-1.787-1.038-4.078-0.425-5.117,1.355
			c-0.396,0.681-0.766,1.39-1.102,2.107c-0.879,1.871-0.074,4.098,1.797,4.979c0.096,0.046,0.193,0.062,0.289,0.099
			c-0.258,0.902-0.467,1.819-0.617,2.758c-0.1-0.006-0.195-0.03-0.299-0.03c-2.068,0-3.74,1.7-3.74,3.768
			c0,0.775,0.031,1.552,0.096,2.317c0.166,1.951,1.803,3.429,3.727,3.429c0.105,0,0.213-0.006,0.32-0.014
			c0.102-0.009,0.195-0.037,0.293-0.053c0.227,0.914,0.506,1.801,0.834,2.672c-0.094,0.038-0.186,0.073-0.275,0.122
			c-1.793,1.032-2.41,3.322-1.375,5.112c0.26,0.455,0.555,0.892,0.844,1.332c0,0,0.002,0.001,0.002,0.002
			c-51.898,17.619-90.953,91.887-90.953,146.905v70.354h113.758V170.263C298.968,170.263,298.021,169.845,297.335,169.168z
			 M282.837,159.514c-0.652,0.453-1.4,0.674-2.139,0.674c-0.889,0-1.766-0.313-2.453-0.911c0.688,0.597,1.564,0.91,2.451,0.91
			c0.738,0,1.484-0.221,2.139-0.674c0.082-0.057,0.15-0.133,0.229-0.197c0,0,0.002,0.001,0.002,0.001
			C282.987,159.38,282.919,159.456,282.837,159.514z M296.251,166.22c-0.943-0.152-1.865-0.358-2.768-0.621
			c-0.035,0.099-0.059,0.196-0.102,0.29c-0.639,1.357-1.982,2.149-3.389,2.149c-0.535,0-1.076-0.115-1.594-0.359
			c-0.674-0.313-1.342-0.666-1.99-1.044c0.648,0.377,1.316,0.73,1.99,1.043c0.516,0.243,1.059,0.359,1.592,0.359
			c1.406,0,2.752-0.792,3.391-2.149c0.041-0.094,0.064-0.191,0.1-0.29C294.386,165.86,295.306,166.066,296.251,166.22
			C296.251,166.219,296.251,166.22,296.251,166.22z"/>
	</g>
	<g>
		<path fill="#C2C63D" d="M318.448,158.07c-0.085-0.052-0.158-0.121-0.24-0.18c-0.595,0.729-1.228,1.412-1.904,2.059
			c0.065,0.078,0.141,0.145,0.2,0.23c1.181,1.695,0.758,4.029-0.938,5.209c-0.646,0.451-1.323,0.879-2.006,1.27
			c-0.587,0.339-1.228,0.501-1.86,0.501c-1.295,0-2.556-0.679-3.251-1.88c-0.052-0.09-0.079-0.186-0.123-0.276
			c-0.867,0.328-1.76,0.605-2.676,0.832c0.018,0.098,0.049,0.191,0.055,0.292c0.175,2.059-1.359,3.873-3.418,4.045
			c-0.756,0.061-1.523,0.09-2.286,0.09v204.905h113.761v-70.354c0-55.111-39.189-129.535-91.218-146.991
			c-0.648,0.477-1.413,0.757-2.211,0.757C319.691,158.582,319.044,158.417,318.448,158.07z"/>
		<path fill="#40424F" d="M415.864,375.168h-2.104H300v22.844v35.443h115.864c7.087,0,12.832-5.748,12.832-12.835V388
			C428.696,380.91,422.951,375.168,415.864,375.168z"/>
		<path fill="#40424F" d="M323.529,146.783c2.065,0,3.741-1.726,3.741-3.792c0-0.794-0.029-1.595-0.099-2.372
			c-0.181-2.058-1.977-3.574-4.052-3.408c-0.104,0.008-0.198,0.044-0.298,0.06c-0.225-0.909-0.506-1.798-0.838-2.66
			c0.094-0.046,0.185-0.087,0.275-0.136c1.788-1.038,2.399-3.328,1.364-5.12c-0.393-0.676-0.822-1.353-1.276-2
			c-1.187-1.691-3.518-2.106-5.214-0.919c-0.085,0.06-0.149,0.133-0.229,0.198c-0.648-0.67-1.33-1.304-2.057-1.889
			c0.06-0.083,0.119-0.161,0.171-0.246c1.035-1.79,0.427-4.085-1.362-5.12c-0.682-0.391-1.39-0.766-2.109-1.102
			c-1.87-0.877-4.098-0.067-4.977,1.806c-0.042,0.095-0.065,0.194-0.1,0.288c-0.895-0.254-1.809-0.462-2.742-0.612
			c0.008-0.096,0.03-0.194,0.03-0.299c0-2.064-1.689-3.741-3.758-3.741v38.327v16.218c0.763,0,1.53-0.03,2.286-0.09
			c2.059-0.172,3.593-1.987,3.418-4.045c-0.006-0.101-0.037-0.194-0.053-0.292c0.912-0.225,1.805-0.504,2.674-0.832
			c0.043,0.09,0.071,0.186,0.123,0.276c0.695,1.201,1.955,1.88,3.251,1.88c0.633,0,1.274-0.164,1.86-0.501
			c0.686-0.391,1.361-0.819,2.006-1.27c1.697-1.18,2.118-3.514,0.938-5.209c-0.06-0.085-0.135-0.152-0.2-0.23
			c0.677-0.646,1.312-1.33,1.904-2.059c0.082,0.06,0.155,0.128,0.24,0.18c0.597,0.347,1.243,0.511,1.885,0.511
			c0.798,0,1.562-0.281,2.211-0.758c0.397-0.292,0.759-0.643,1.025-1.099c0.391-0.677,0.763-1.375,1.104-2.098
			c0.889-1.864,0.092-4.098-1.773-4.984c-0.099-0.047-0.2-0.068-0.297-0.106c0.262-0.906,0.474-1.831,0.625-2.779
			C323.329,146.764,323.426,146.783,323.529,146.783z"/>
		<path fill="#B8BC33" d="M300,170.263c-2.068,0-3.781-1.67-3.781-3.742c0-0.101,0.024-0.197,0.031-0.301
			c-0.943-0.153-1.865-0.359-2.768-0.622c-0.036,0.099-0.059,0.196-0.101,0.29c-0.64,1.357-1.984,2.149-3.389,2.149
			c-0.535,0-1.078-0.115-1.594-0.359c-0.713-0.331-1.42-0.704-2.103-1.106c-1.787-1.033-2.393-3.327-1.353-5.112
			c0.051-0.09,0.119-0.161,0.178-0.241c-0.727-0.594-1.41-1.231-2.058-1.902c-0.078,0.063-0.146,0.14-0.229,0.197
			c-0.652,0.453-1.4,0.674-2.139,0.674c-1.184,0-2.347-0.556-3.072-1.601c-0.153-0.219-0.283-0.453-0.429-0.677
			c-51.897,17.618-90.954,91.887-90.954,146.905v70.354H300V170.263z"/>
		<path fill="#363845" d="M186.24,375.168h-2.105c-7.086,0-12.833,5.742-12.833,12.835v32.62c0,7.087,5.745,12.834,12.833,12.834
			H300v-35.443v-22.843H186.24V375.168z"/>
		<path fill="#363845" d="M297.657,115.823c-2.062,0.169-3.59,1.987-3.412,4.045c0.01,0.104,0.037,0.197,0.052,0.294
			c-0.911,0.23-1.803,0.512-2.67,0.841c-0.042-0.091-0.07-0.19-0.122-0.276c-1.035-1.79-3.325-2.406-5.115-1.374
			c-0.686,0.394-1.36,0.824-2.005,1.275c-1.695,1.19-2.107,3.522-0.922,5.213c0.06,0.088,0.136,0.145,0.202,0.228
			c-0.674,0.646-1.311,1.333-1.902,2.059c-0.082-0.055-0.156-0.122-0.242-0.175c-1.788-1.038-4.079-0.425-5.118,1.355
			c-0.395,0.681-0.766,1.39-1.101,2.107c-0.879,1.871-0.074,4.098,1.797,4.979c0.096,0.046,0.194,0.062,0.29,0.099
			c-0.258,0.902-0.468,1.819-0.617,2.758c-0.1-0.006-0.197-0.03-0.299-0.03c-2.068,0-3.741,1.7-3.741,3.768
			c0,0.775,0.031,1.552,0.096,2.317c0.165,1.951,1.802,3.429,3.726,3.429c0.105,0,0.213-0.006,0.32-0.014
			c0.101-0.009,0.196-0.037,0.293-0.053c0.227,0.914,0.506,1.801,0.834,2.672c-0.094,0.038-0.187,0.073-0.275,0.122
			c-1.793,1.032-2.41,3.322-1.376,5.112c0.26,0.455,0.556,0.892,0.845,1.332c0.146,0.223,0.277,0.458,0.429,0.677
			c0.725,1.045,1.889,1.601,3.072,1.601c0.739,0,1.485-0.221,2.14-0.674c0.081-0.057,0.15-0.133,0.228-0.197
			c0.648,0.671,1.332,1.309,2.058,1.902c-0.059,0.08-0.125,0.152-0.177,0.241c-1.04,1.785-0.434,4.08,1.353,5.112
			c0.683,0.402,1.39,0.775,2.103,1.106c0.516,0.243,1.059,0.359,1.593,0.359c1.406,0,2.75-0.792,3.389-2.149
			c0.042-0.094,0.065-0.191,0.101-0.29c0.903,0.262,1.824,0.469,2.768,0.621c-0.008,0.104-0.032,0.2-0.032,0.301
			c0,2.072,1.714,3.742,3.782,3.742v-16.218v-38.327C299.221,115.719,298.434,115.751,297.657,115.823z"/>
		<path fill="#D86D50" d="M393.582,433.999c0,0.59-0.479,1.067-1.068,1.067h-17.114c-0.59,0-1.068-0.479-1.068-1.067v-36.364
			c0-0.595,0.479-1.068,1.068-1.068h17.114c0.59,0,1.068,0.474,1.068,1.068V433.999z"/>
		<circle fill="#F0F0CB" cx="383.956" cy="410.46" r="5.091"/>
	</g>
</g>
</svg>